#!OML:ASF H:\Terrain\Walking\May29\JustinRory\Justin.ASF
:FULLY-SPECIFIED
:DEGREES
1136
root 16.7317 9.84215 -6.66848 -105.069 -86.4238 83.6657
lowerback 43.7658 4.16203 2.90554
upperback 17.6708 3.41056 1.25858
thorax -0.608059 0.619559 -1.33232
lowerneck -9.5276 18.7268 -2.25625
upperneck 18.2152 26.787 -5.21634
head 7.64502 12.2095 1.19983
rclavicle -1.82882e-014 4.13472e-014
rhumerus 19.3736 22.3284 -64.0919
rradius 75.0953
rwrist 6.24891
rhand 15.752 13.6532
rfingers 7.12502
rthumb 40.5591 -11.4017
lclavicle -1.82882e-014 4.13472e-014
lhumerus 38.3101 -37.4095 71.0839
lradius 56.036
lwrist -21.5952
lhand 22.7732 41.854
lfingers 7.12502
lthumb 47.1093 64.4719
rfemur -69.1519 -12.977 14.6446
rtibia 74.8815
rfoot 18.485 1.00911
rtoes 19.9467
lfemur -67.0613 8.69517 -16.1075
ltibia 72.1459
lfoot 16.9226 -11.0194
ltoes -16.0971
1137
root 16.7126 9.83219 -6.66356 -102.953 -86.4086 81.6777
lowerback 43.775 4.06069 3.13928
upperback 17.537 3.41082 1.16507
thorax -0.739219 0.651442 -1.55047
lowerneck -9.37086 18.689 -2.11953
upperneck 18.3182 26.6558 -4.94182
head 7.62622 12.1791 1.23573
rclavicle -1.11319e-014 1.98785e-014
rhumerus 18.9205 22.0738 -64.3859
rradius 75.3216
rwrist 6.30309
rhand 15.8131 13.5735
rfingers 7.12502
rthumb 40.6164 -11.4636
lclavicle -1.11319e-014 1.98785e-014
lhumerus 38.0679 -37.4468 71.366
lradius 55.9716
lwrist -22.277
lhand 24.2658 40.8707
lfingers 7.12502
lthumb 48.4862 62.8534
rfemur -69.4243 -13.1954 14.6111
rtibia 75.1458
rfoot 18.5442 0.702927
rtoes 21.203
lfemur -67.4259 8.97012 -16.4758
ltibia 72.4394
lfoot 16.8058 -11.3663
ltoes -15.8038
1138
root 16.6431 9.77713 -6.66007 -102.089 -86.5479 80.9366
lowerback 43.7049 3.92745 3.38361
upperback 17.5456 3.34299 1.10441
thorax -0.693764 0.640602 -1.71255
lowerneck -9.57792 18.7774 -2.21326
upperneck 18.5247 26.7405 -4.54659
head 7.65913 12.2328 1.39098
rclavicle 1.59028e-014 2.62396e-014
rhumerus 18.9271 22.0193 -64.4624
rradius 75.5274
rwrist 6.1135
rhand 15.6965 13.135
rfingers 7.12502
rthumb 40.5068 -11.9361
lclavicle 1.59028e-014 2.62396e-014
lhumerus 38.1149 -37.256 71.3106
lradius 56.099
lwrist -22.8034
lhand 25.8763 41.2784
lfingers 7.12502
lthumb 49.9644 62.5198
rfemur -69.9735 -13.3298 14.7528
rtibia 75.6033
rfoot 18.4073 1.01881
rtoes 20.1937
lfemur -68.2896 10.3896 -17.2192
ltibia 72.9925
lfoot 16.6642 -12.6734
ltoes -15.6901
1139
root 16.6171 9.75553 -6.65912 -103.61 -86.9091 82.7026
lowerback 43.4454 3.74604 3.55127
upperback 17.6332 3.17062 1.16492
thorax -0.526925 0.561372 -1.66875
lowerneck -9.90872 19.0127 -2.66518
upperneck 18.6186 27.1167 -4.33756
head 7.66108 12.3936 1.56371
rclavicle -3.4191e-014 1.59028e-014
rhumerus 19.4006 22.4431 -64.2192
rradius 75.6931
rwrist 5.63032
rhand 15.7875 12.8338
rfingers 7.12502
rthumb 40.5924 -12.2107
lclavicle -3.4191e-014 1.59028e-014
lhumerus 38.2503 -36.9668 71.0212
lradius 56.4789
lwrist -22.4424
lhand 25.6299 43.463
lfingers 7.12502
lthumb 49.7388 64.8218
rfemur -70.3768 -13.256 15.2181
rtibia 75.8654
rfoot 18.1553 1.43528
rtoes 18.5328
lfemur -68.9209 10.9487 -17.1291
ltibia 73.4064
lfoot 16.5418 -13.1871
ltoes -15.5208
1140
root 16.6097 9.75862 -6.66074 -102.618 -87.0502 81.8718
lowerback 43.1149 3.57972 3.48066
upperback 17.7658 2.91753 1.19178
thorax -0.307431 0.430308 -1.51268
lowerneck -10.09 19.2463 -2.91572
upperneck 18.482 27.4897 -4.41212
head 7.62926 12.558 1.61248
rclavicle -1.19271e-014 -7.95139e-015
rhumerus 19.8288 22.9568 -64.1547
rradius 75.7928
rwrist 5.30821
rhand 15.9989 12.7011
rfingers 7.12502
rthumb 40.7911 -12.2813
lclavicle -1.19271e-014 -7.95139e-015
lhumerus 37.9887 -36.1389 71.3012
lradius 53.3296
lwrist -16.2719
lhand 11.0112 29.9914
lfingers 7.12502
lthumb 36.0848 56.287
rfemur -70.5219 -13.3566 15.4407
rtibia 75.9632
rfoot 18.0631 1.48544
rtoes 18.1095
lfemur -69.1772 10.8999 -17.0334
ltibia 73.6338
lfoot 16.3612 -13.2019
ltoes -15.6776
1141
root 16.6064 9.76922 -6.67544 -104.213 -87.1719 83.3058
lowerback 43.2499 3.61222 3.46513
upperback 17.841 2.92612 1.2218
thorax -0.260378 0.420963 -1.47668
lowerneck -10.0625 19.3286 -2.80853
upperneck 18.326 27.5869 -4.49874
head 7.60118 12.6159 1.57683
rclavicle -2.22639e-014 1.82882e-014
rhumerus 19.9114 23.0272 -64.3331
rradius 75.8452
rwrist 5.22689
rhand 16.1947 12.5429
rfingers 7.12502
rthumb 40.975 -12.3814
lclavicle -2.22639e-014 1.82882e-014
lhumerus 37.9137 -36.05 71.1502
lradius 56.893
lwrist -22.6629
lhand 26.4601 43.8635
lfingers 7.12502
lthumb 50.4982 64.8206
rfemur -70.2058 -13.2124 15.5696
rtibia 75.9317
rfoot 17.9385 1.28826
rtoes 18.9033
lfemur -68.9175 11.0527 -16.8144
ltibia 73.6602
lfoot 16.107 -13.328
ltoes -16.2096
